<svg id="Calque_1" data-name="Calque 1" xmlns="http://www.w3.org/2000/svg" viewBox="0 0 205.93 43.89"><defs><style>.cls-1{fill:#fff;}</style></defs><title>KORINE_BLANC</title><path class="cls-1" d="M318,276.72h2.15v10.4l20.21-10.4,1,1.79L318,290.77Zm13.39,19.73,12.61,21-1.79,1.08L330.73,299.4l-10.58,5.14v14H318V303.2Z" transform="translate(-318 -275.87)"/><path class="cls-1" d="M390.67,297.64a21.94,21.94,0,1,1-22.12-21.76h.18a21.43,21.43,0,0,1,21.94,20.91Q390.68,297.22,390.67,297.64Zm-2.15,0a19.79,19.79,0,1,0-19.85,19.73h.06a19.42,19.42,0,0,0,19.78-19.05q0-.34,0-.68Z" transform="translate(-318 -275.87)"/><path class="cls-1" d="M419.51,276.72a7.68,7.68,0,0,1,0,15.36H400.86V276.72Zm9.92,40.77-1.85,1.08-7.23-13.21H403v13.21h-2.15V303.2h20.8ZM403,278.87v11.06h16.5a5.53,5.53,0,0,0,0-11.06H403Z" transform="translate(-318 -275.87)"/><path class="cls-1" d="M437.82,276.72H440v41.84h-2.15Z" transform="translate(-318 -275.87)"/><path class="cls-1" d="M483.79,316.89l-1.37,1.67-28.33-23.25v23.25h-2.15V290.71ZM453.9,278.4l1.37-1.67L483.61,300V276.72h2.15v27.85Z" transform="translate(-318 -275.87)"/><path class="cls-1" d="M523.93,278.87h-24v11.06h15.66v2.15H497.74V276.72h26.18Zm0,39.69H497.74V303.2h17.81v2.15H499.9v11.06h24Z" transform="translate(-318 -275.87)"/></svg>