<?xml version="1.0" encoding="utf-8"?>
<!-- Generator: Adobe Illustrator 20.1.0, SVG Export Plug-In . SVG Version: 6.00 Build 0)  -->
<svg version="1.1" id="Calque_1" xmlns="http://www.w3.org/2000/svg" xmlns:xlink="http://www.w3.org/1999/xlink" x="0px" y="0px"
	 viewBox="0 0 841.9 595.3" style="enable-background:new 0 0 841.9 595.3;" xml:space="preserve">
<style type="text/css">
	.st0{fill:#FFFFFF;}
</style>
<rect x="297.6" y="266.5" class="st0" width="246.7" height="62.2"/>
<g>
	<path d="M318,276.7h2.2v10.4l20.2-10.4l1,1.8L318,290.8V276.7z M331.4,296.4l12.6,21l-1.8,1.1l-11.5-19.1l-10.6,5.1v14H318v-15.4
		L331.4,296.4z"/>
	<path d="M390.7,297.6c0,12.1-9.2,21.8-21.9,21.8c-12.7,0-21.9-9.7-21.9-21.8c0-12.1,9.2-21.8,21.9-21.8
		C381.5,275.9,390.7,285.6,390.7,297.6z M388.5,297.6c0-10.8-8.2-19.7-19.8-19.7c-11.5,0-19.8,8.9-19.8,19.7
		c0,10.8,8.2,19.7,19.8,19.7C380.3,317.4,388.5,308.5,388.5,297.6z"/>
	<path d="M419.5,276.7c4.2,0,7.7,3.5,7.7,7.7c0,4.1-3.5,7.7-7.7,7.7h-18.7v-15.4H419.5z M429.4,317.5l-1.9,1.1l-7.2-13.2H403v13.2
		h-2.2v-15.4h20.8L429.4,317.5z M403,278.9v11.1h16.5c3,0,5.6-2.5,5.6-5.5c0-3-2.5-5.6-5.6-5.6H403z"/>
	<path d="M437.8,276.7h2.2v41.8h-2.2V276.7z"/>
	<path d="M483.8,316.9l-1.4,1.7l-28.3-23.3v23.3h-2.2v-27.9L483.8,316.9z M453.9,278.4l1.4-1.7l28.3,23.3v-23.3h2.2v27.9
		L453.9,278.4z"/>
	<path d="M523.9,278.9h-24v11.1h15.7v2.2h-17.8v-15.4h26.2V278.9z M523.9,318.6h-26.2v-15.4h17.8v2.2h-15.7v11.1h24V318.6z"/>
</g>
</svg>
