<svg id="Calque_1" data-name="Calque 1" xmlns="http://www.w3.org/2000/svg" viewBox="0 0 841.89 595.28"><defs><style>.cls-1{fill:#221f20;}.cls-2{fill:#fff;}</style></defs><title>Plan de travail 1</title><rect class="cls-1" x="297.58" y="266.53" width="246.72" height="62.22"/><path class="cls-2" d="M318,276.72h2.15v10.4l20.21-10.4,1,1.79L318,290.77Zm13.39,19.73,12.61,21-1.79,1.08-11.48-19.13-10.58,5.14v14H318V303.2Z"/><path class="cls-2" d="M390.67,297.64a21.94,21.94,0,1,1-21.94-21.76A21.43,21.43,0,0,1,390.67,297.64Zm-2.15,0a19.79,19.79,0,1,0-19.79,19.73A19.42,19.42,0,0,0,388.51,297.64Z"/><path class="cls-2" d="M419.51,276.72a7.68,7.68,0,1,1,0,15.36H400.86V276.72Zm9.92,40.77-1.85,1.08-7.23-13.21H403v13.21h-2.15V303.2h20.8ZM403,278.87v11.06h16.5a5.53,5.53,0,1,0,0-11.06Z"/><path class="cls-2" d="M437.82,276.72H440v41.84h-2.15Z"/><path class="cls-2" d="M483.79,316.89l-1.37,1.67-28.33-23.25v23.25h-2.15V290.71Zm-29.89-38.49,1.37-1.67L483.61,300V276.72h2.15v27.85Z"/><path class="cls-2" d="M523.93,278.87h-24v11.06h15.66v2.15H497.74V276.72h26.18Zm0,39.69H497.74V303.2h17.81v2.15H499.9v11.06h24Z"/></svg>