<?xml version="1.0" encoding="utf-8"?>
<!-- Generator: Adobe Illustrator 20.1.0, SVG Export Plug-In . SVG Version: 6.00 Build 0)  -->
<svg version="1.1" id="Calque_1" xmlns="http://www.w3.org/2000/svg" xmlns:xlink="http://www.w3.org/1999/xlink" x="0px" y="0px"
	 viewBox="0 0 449.5 113.5" style="enable-background:new 0 0 449.5 113.5;" xml:space="preserve">
<style type="text/css">
	.st0{fill:#FFFFFF;}
</style>
<g>
	<path class="st0" d="M0,0v113.3h449.5V0H0z M188,18.6h34.1c7.7,0,14,6.4,14,14c0,7.5-6.4,14-14,14H188V18.6z M37.2,18.6h4v18.9
		L78,18.6l1.8,3.3L37.2,44.3L37.2,18.6L37.2,18.6z M81.3,94.8L60.3,60L41,69.3v25.5h-3.8V66.7l24.4-12.2l23,38.3L81.3,94.8z
		 M129.7,96.4c-23.1,0-39.9-17.7-39.9-39.7S106.6,17,129.7,17c23.1,0.2,39.9,17.9,39.9,39.7C169.6,78.7,152.9,96.4,129.7,96.4z
		 M236.7,95l-13.1-24.1h-31.5V95h-4V66.9H226L240.2,93L236.7,95z M259.5,94.8h-4V18.6h4V94.8z M336.7,95l-51.6-42.5V95h-4V44.1
		l58.1,47.7L336.7,95z M342.9,69.5l-58.1-47.8l2.6-3.1L339,61.1V18.6h4v50.9H342.9z M364.6,95V66.9H397v4h-28.6v20.2h43.7v3.8h-47.5
		V95z M412.5,22.6h-0.2h-43.7v20.2h28.6v4h-32.4V18.7h47.7V22.6z"/>
	<path class="st0" d="M129.5,20.8c-21,0-36.1,16.2-36.1,35.9s14.9,35.9,36.1,35.9c21.1,0.2,36.1-16,36.1-35.9
		C165.6,37,150.7,20.8,129.5,20.8z"/>
	<path class="st0" d="M232.3,32.8c0-5.5-4.6-10.2-10.2-10.2H192v20.2h30.1C227.6,42.9,232.3,38.3,232.3,32.8z"/>
</g>
</svg>
